<svg width="55" height="55" viewBox="0 0 55 55" fill="none" xmlns="http://www.w3.org/2000/svg">
<circle cx="27.5" cy="27.5" r="27.5" fill="#5F9BCE"/>
<path d="M39.25 25.5C39.25 34.25 28 41.75 28 41.75C28 41.75 16.75 34.25 16.75 25.5C16.75 22.5163 17.9353 19.6548 20.045 17.545C22.1548 15.4353 25.0163 14.25 28 14.25C30.9837 14.25 33.8452 15.4353 35.955 17.545C38.0647 19.6548 39.25 22.5163 39.25 25.5Z" stroke="#FDFDFD" stroke-width="2" stroke-linecap="round" stroke-linejoin="round"/>
<path d="M28 29.25C30.0711 29.25 31.75 27.5711 31.75 25.5C31.75 23.4289 30.0711 21.75 28 21.75C25.9289 21.75 24.25 23.4289 24.25 25.5C24.25 27.5711 25.9289 29.25 28 29.25Z" stroke="#FDFDFD" stroke-width="2" stroke-linecap="round" stroke-linejoin="round"/>
</svg>
