<svg width="55" height="55" viewBox="0 0 55 55" fill="none" xmlns="http://www.w3.org/2000/svg">
<circle cx="27.5" cy="27.5" r="27.5" fill="#5F9BCE"/>
<path d="M27 14.25V41.75" stroke="#FFFAFA" stroke-width="2" stroke-linecap="round" stroke-linejoin="round"/>
<path d="M33.25 19.25H23.875C22.7147 19.25 21.6019 19.7109 20.7814 20.5314C19.9609 21.3519 19.5 22.4647 19.5 23.625C19.5 24.7853 19.9609 25.8981 20.7814 26.7186C21.6019 27.5391 22.7147 28 23.875 28H30.125C31.2853 28 32.3981 28.4609 33.2186 29.2814C34.0391 30.1019 34.5 31.2147 34.5 32.375C34.5 33.5353 34.0391 34.6481 33.2186 35.4686C32.3981 36.2891 31.2853 36.75 30.125 36.75H19.5" stroke="#FFFAFA" stroke-width="2" stroke-linecap="round" stroke-linejoin="round"/>
</svg>
