<svg width="55" height="55" viewBox="0 0 55 55" fill="none" xmlns="http://www.w3.org/2000/svg">
<circle cx="27.5" cy="27.5" r="27.5" fill="#5F9BCE"/>
<path d="M39.5 26.85V28C39.4985 30.6955 38.6256 33.3183 37.0117 35.4772C35.3977 37.6362 33.1291 39.2156 30.5442 39.9798C27.9593 40.7441 25.1966 40.6523 22.6681 39.7182C20.1396 38.784 17.9808 37.0576 16.5137 34.7963C15.0466 32.535 14.3497 29.86 14.5271 27.1703C14.7045 24.4807 15.7465 21.9204 17.4978 19.8713C19.2492 17.8222 21.616 16.3942 24.2452 15.8001C26.8745 15.2061 29.6253 15.4779 32.0875 16.575" stroke="#FFFAFA" stroke-width="2" stroke-linecap="round" stroke-linejoin="round"/>
<path d="M39.5 18L27 30.5125L23.25 26.7625" stroke="#FFFAFA" stroke-width="2" stroke-linecap="round" stroke-linejoin="round"/>
</svg>
